<?xml version="1.0" standalone="no"?>
<!DOCTYPE svg PUBLIC "-//W3C//DTD SVG 20010904//EN"
 "http://www.w3.org/TR/2001/REC-SVG-20010904/DTD/svg10.dtd">
<svg version="1.0" xmlns="http://www.w3.org/2000/svg"
 width="3600.000000pt" height="3600.000000pt" viewBox="0 0 3600.000000 3600.000000"
 preserveAspectRatio="xMidYMid meet">
<metadata>
Created by potrace 1.11, written by Peter Selinger 2001-2013
</metadata>
<g transform="translate(0.000000,3600.000000) scale(0.100000,-0.100000)"
fill="#000000" stroke="none">
<path d="M17505 34494 c-2808 -39 -5338 -364 -7085 -910 -1401 -438 -2783
-1208 -4025 -2243 -1891 -1576 -3316 -3638 -3979 -5761 -460 -1472 -763 -3486
-870 -5790 -54 -1140 -54 -2440 0 -3580 107 -2304 410 -4318 870 -5790 438
-1401 1208 -2783 2243 -4025 1321 -1585 2981 -2844 4766 -3612 1055 -454 2349
-775 4025 -997 1420 -189 2887 -279 4550 -279 1663 0 3130 90 4550 279 1675
222 2971 543 4025 997 3247 1398 5993 4390 7009 7637 460 1468 763 3488 870
5790 54 1138 54 2442 0 3580 -107 2302 -410 4322 -870 5790 -592 1891 -1799
3757 -3389 5239 -1306 1216 -2720 2096 -4245 2642 -1595 571 -4058 938 -6825
1018 -373 11 -1289 19 -1620 15z m-7570 -5173 c361 -63 695 -189 1020 -384
1118 -671 2146 -2116 3078 -4327 1359 -3224 2494 -8095 3366 -14440 192 -1397
361 -2773 540 -4405 32 -291 61 -523 64 -515 3 8 28 231 57 495 607 5705 1482
10857 2461 14505 602 2241 1210 3952 1913 5385 548 1116 1099 1946 1706 2569
623 640 1242 999 1925 1117 154 27 495 37 657 20 624 -67 1234 -350 1843 -855
155 -129 542 -516 671 -671 284 -342 505 -673 713 -1064 500 -943 786 -2030
867 -3296 18 -287 21 -930 5 -1225 -106 -1948 -661 -3997 -1644 -6060 -158
-331 -490 -983 -625 -1225 -826 -1486 -2078 -3011 -3822 -4655 -1701 -1604
-3898 -3295 -6315 -4860 -214 -139 -398 -255 -407 -257 -32 -9 -1170 739
-1963 1292 -3045 2122 -5508 4314 -7170 6385 -552 688 -1025 1378 -1397 2040
-138 246 -486 926 -655 1280 -890 1868 -1435 3743 -1604 5520 -68 721 -68
1536 1 2195 80 774 247 1488 500 2140 263 677 600 1256 1040 1786 132 158 519
545 675 675 591 490 1172 767 1785 849 159 21 558 14 715 -14z"/>
</g>
</svg>
